<?xml version="1.0" encoding="utf-8"?>
<!-- Generator: Adobe Illustrator 22.1.0, SVG Export Plug-In . SVG Version: 6.00 Build 0)  -->
<svg version="1.1" id="Layer_1" xmlns="http://www.w3.org/2000/svg" xmlns:xlink="http://www.w3.org/1999/xlink" x="0px" y="0px"
	 viewBox="0 0 360 87.2" style="enable-background:new 0 0 360 87.2;" xml:space="preserve">
<style type="text/css">
	.st0{fill:url(#SVGID_1_);}
	.st1{fill:#474444;}
	.st2{fill:url(#SVGID_2_);}
	.st3{fill:url(#SVGID_3_);}
	.st4{fill:#25CBA1;}
	.st5{fill:url(#SVGID_4_);}
	.st6{fill:url(#SVGID_5_);}
	.st7{fill:#2A2A2A;}
	.st8{fill:url(#SVGID_6_);}
	.st9{fill:url(#SVGID_7_);}
	.st10{fill:url(#SVGID_8_);}
	.st11{fill:#101010;}
	.st12{fill:#3DD9AA;}
	.st13{fill:#6C6E70;}
</style>
<g>
	<g>
		
			<linearGradient id="SVGID_1_" gradientUnits="userSpaceOnUse" x1="-3.8395" y1="4.1955" x2="-3.4617" y2="4.1955" gradientTransform="matrix(192.0046 0 0 -192.0046 737.3372 886.9955)">
			<stop  offset="0" style="stop-color:#35D7B9"/>
			<stop  offset="1" style="stop-color:#1FEAB0"/>
		</linearGradient>
		<polygon class="st0" points="36.9,76 51.4,76 51.4,86.8 36.9,86.8 22.4,86.8 22.4,76 		"/>
		<polygon class="st1" points="36.9,76 36.9,76.4 51.1,76.4 51.1,86.5 36.9,86.5 22.8,86.5 22.8,76.4 36.9,76.4 36.9,76 36.9,75.7 
			22,75.7 22,87.2 36.9,87.2 51.8,87.2 51.8,75.7 36.9,75.7 		"/>
		
			<linearGradient id="SVGID_2_" gradientUnits="userSpaceOnUse" x1="-3.8395" y1="4.1759" x2="-3.4617" y2="4.1759" gradientTransform="matrix(192.0046 0 0 -192.0046 737.3372 880.9493)">
			<stop  offset="0" style="stop-color:#35D7B9"/>
			<stop  offset="1" style="stop-color:#1FEAB0"/>
		</linearGradient>
		<path class="st2" d="M36.9,86.2c0,0-13.7-9.5-18.1-12.7c-4.5-3.2-11.1-2.3-14.5,0.7s-4.7,5.7-3.5,8.6c1.1,2.9,3.8,4.1,5.5,4.1
			s30.7,0,30.7,0L36.9,86.2z"/>
		<path class="st1" d="M36.9,86.2l0.2-0.3c0,0-0.2-0.1-0.6-0.4C33.9,83.6,22.9,76,19,73.2c-2-1.5-4.5-2.1-6.8-2.1
			c-3.1,0-6.1,1-8.1,2.8c-1.3,1.1-2.3,2.3-3,3.4C0.4,78.4,0,79.5,0,80.7c0,0.7,0.1,1.5,0.4,2.2C1,84.4,2,85.5,3.1,86.2
			c1.1,0.7,2.2,1,3.2,1c1.7,0,30.7,0,30.7,0h0.4l0-1.3l-0.2-0.1L36.9,86.2l-0.4,0l0,0.7l0.4,0v-0.4c0,0-29,0-30.7,0
			c-0.8,0-1.8-0.3-2.7-0.9c-1-0.6-1.8-1.6-2.4-3c-0.3-0.7-0.4-1.3-0.4-1.9c0-1,0.3-2,0.9-3c0.6-1,1.6-2.1,2.9-3.2
			c1.8-1.6,4.7-2.6,7.6-2.6c2.2,0,4.5,0.6,6.4,1.9C23,77,36.7,86.5,36.7,86.5L36.9,86.2l-0.4,0L36.9,86.2z"/>
		
			<linearGradient id="SVGID_3_" gradientUnits="userSpaceOnUse" x1="-3.8395" y1="4.1759" x2="-3.4617" y2="4.1759" gradientTransform="matrix(192.0046 0 0 -192.0046 737.3372 880.9493)">
			<stop  offset="0" style="stop-color:#35D7B9"/>
			<stop  offset="1" style="stop-color:#1FEAB0"/>
		</linearGradient>
		<path class="st3" d="M36.9,86.2c0,0,13.7-9.5,18.1-12.7c4.5-3.2,11.1-2.3,14.5,0.7s4.7,5.7,3.5,8.6c-1.1,2.9-3.8,4.1-5.5,4.1
			s-30.7,0-30.7,0L36.9,86.2z"/>
		<path class="st1" d="M36.9,86.2l0.2,0.3c0,0,13.7-9.5,18.1-12.7c1.9-1.3,4.1-1.9,6.4-1.9c2.9,0,5.8,1,7.6,2.6
			c1.3,1.1,2.2,2.2,2.9,3.2c0.6,1,0.9,2,0.9,3c0,0.6-0.1,1.3-0.4,1.9c-0.5,1.4-1.4,2.3-2.4,3c-1,0.6-2,0.9-2.7,0.9
			c-1.7,0-30.7,0-30.7,0v0.4l0.4,0l0-0.7L36.9,86.2l0.2,0.3L36.9,86.2l-0.4,0l0,1.1h0.4c0,0,29,0,30.7,0c0.9,0,2.1-0.3,3.2-1
			c1.1-0.7,2.1-1.8,2.7-3.3c0.3-0.7,0.4-1.5,0.4-2.2c0-1.2-0.4-2.3-1.1-3.4c-0.7-1.1-1.7-2.2-3-3.4c-2-1.7-5-2.8-8.1-2.8
			c-2.4,0-4.8,0.6-6.8,2.1c-2.2,1.6-6.8,4.8-10.7,7.5c-2,1.4-3.8,2.7-5.2,3.6c-0.7,0.5-1.2,0.9-1.6,1.1c-0.4,0.3-0.6,0.4-0.6,0.4
			L36.6,86l0,0.2L36.9,86.2z"/>
		<path class="st4" d="M6.1,77c0,0,4.1-2.5,9-2.8C15.1,74.2,7.4,71.9,6.1,77z"/>
		<path class="st4" d="M16.8,84.5c0,0-10.9-1.1-13.6-3.1c0,0,0.6,2.1,3.2,2.8C9,85,16.8,84.5,16.8,84.5z"/>
		<path class="st4" d="M30.3,85.6c0,0,2.5-0.3,3.6,0.6C33.9,86.2,33.2,84,30.3,85.6z"/>
		<path class="st4" d="M67.8,77c0,0-4.1-2.5-9-2.8C58.8,74.2,66.5,71.9,67.8,77z"/>
		<path class="st4" d="M57.1,84.5c0,0,10.9-1.1,13.6-3.1c0,0-0.6,2.1-3.2,2.8C64.8,85,57.1,84.5,57.1,84.5z"/>
		<path class="st4" d="M43.5,85.6c0,0-2.5-0.3-3.6,0.6C39.9,86.2,40.6,84,43.5,85.6z"/>
		
			<linearGradient id="SVGID_4_" gradientUnits="userSpaceOnUse" x1="14.0033" y1="15.3416" x2="14.3811" y2="15.3416" gradientTransform="matrix(5.384000e-12 -52.0013 -52.0013 -5.384000e-12 834.7122 762.6478)">
			<stop  offset="0" style="stop-color:#FFA278"/>
			<stop  offset="1" style="stop-color:#FFCFB9"/>
		</linearGradient>
		<path class="st5" d="M47.9,20.2c0,7.8-4.9,14.1-11,14.1s-11-6.3-11-14.1c0-7.8,4.9-14.1,11-14.1S47.9,12.4,47.9,20.2z"/>
		<path class="st1" d="M47.9,20.2h-0.4c0,3.8-1.2,7.3-3.1,9.8c-1.9,2.5-4.6,4-7.5,4c-2.9,0-5.6-1.5-7.5-4c-1.9-2.5-3.1-5.9-3.1-9.8
			c0-3.8,1.2-7.3,3.1-9.8c1.9-2.5,4.6-4,7.5-4c2.9,0,5.6,1.5,7.5,4c1.9,2.5,3.1,5.9,3.1,9.8H47.9h0.4c0-4-1.3-7.6-3.3-10.2
			c-2-2.6-4.9-4.3-8.1-4.3c-3.2,0-6,1.7-8.1,4.3c-2.1,2.6-3.3,6.2-3.3,10.2c0,4,1.3,7.6,3.3,10.2c2,2.6,4.9,4.3,8.1,4.3
			c3.2,0,6-1.7,8.1-4.3c2.1-2.6,3.3-6.2,3.3-10.2H47.9z"/>
		
			<linearGradient id="SVGID_5_" gradientUnits="userSpaceOnUse" x1="-9.2528" y1="8.2577" x2="-8.875" y2="8.2577" gradientTransform="matrix(83.4167 0 0 -83.4167 793.0039 699.3811)">
			<stop  offset="0" style="stop-color:#35D7B9"/>
			<stop  offset="1" style="stop-color:#1FEAB0"/>
		</linearGradient>
		<path class="st6" d="M36.9,0.4c-8.1,0-15.8,4.3-15.8,11.3s4.7,9,4.7,9s1.8-10.2,12.3-12c0,0,7.5,1.5,9.8,12c0,0,4.7-2,4.7-9
			S45,0.4,36.9,0.4z"/>
		<path class="st1" d="M36.9,0.4V0c-4.1,0-8.1,1.1-11.1,3.1c-1.5,1-2.8,2.2-3.6,3.7c-0.9,1.4-1.4,3.1-1.4,4.9c0,3.6,1.2,5.9,2.5,7.4
			c1.2,1.4,2.5,2,2.5,2l0.4,0.2l0.1-0.5l0,0c0.1-0.3,0.6-2.8,2.3-5.4c1.7-2.6,4.7-5.4,9.7-6.3l-0.1-0.4l-0.1,0.4l0,0
			c0.1,0,1.9,0.4,4,2.1c2.1,1.7,4.4,4.6,5.5,9.7l0.1,0.4l0.4-0.2c0,0,1.3-0.5,2.5-2c1.2-1.4,2.5-3.8,2.5-7.4c0-1.8-0.5-3.5-1.4-4.9
			c-1.3-2.2-3.5-3.9-6.1-5C43,0.6,40,0,36.9,0V0.4v0.4c4,0,7.9,1.1,10.7,3c1.4,1,2.6,2.1,3.4,3.5c0.8,1.3,1.3,2.8,1.3,4.5
			c0,3.4-1.1,5.6-2.3,6.9c-0.6,0.7-1.1,1.1-1.6,1.4c-0.2,0.1-0.4,0.2-0.5,0.3c-0.1,0-0.1,0.1-0.1,0.1l0,0l0,0l0,0l0.1,0.3l0.4-0.1
			c-1.2-5.4-3.6-8.5-5.9-10.2c-2.2-1.7-4.1-2.1-4.2-2.1l-0.1,0l-0.1,0c-2.7,0.5-4.8,1.5-6.5,2.7c-2.5,1.9-4,4.3-4.9,6.2
			c-0.9,1.9-1.1,3.4-1.1,3.4l0.4,0.1l0.1-0.3l0,0c0,0-1.2-0.5-2.3-1.9c-1.1-1.3-2.2-3.5-2.2-6.8c0-1.7,0.5-3.2,1.3-4.5
			c1.2-2,3.2-3.6,5.7-4.7c2.5-1.1,5.4-1.7,8.4-1.7V0.4z"/>
		<path class="st1" d="M38.3,9.1c1-0.2,2.1-0.3,3.1-0.3c4.3,0,8.3,1.6,10.9,4.9l0.6-0.5C50.1,9.7,45.8,8,41.3,8
			c-1.1,0-2.1,0.1-3.2,0.3L38.3,9.1L38.3,9.1z"/>
		<path class="st7" d="M35.5,19.1c0,0-0.3-0.3-0.8-0.6c-0.5-0.3-1.2-0.6-2-0.6c-0.8,0-1.8,0.3-2.8,1.2c-0.2,0.1-0.2,0.4,0,0.5
			c0.1,0.2,0.4,0.2,0.5,0c0.9-0.8,1.7-1,2.3-1c0.6,0,1.2,0.2,1.6,0.5c0.2,0.1,0.3,0.2,0.4,0.3c0.1,0,0.1,0.1,0.1,0.1l0,0l0,0l0,0
			l0,0l0,0l0,0l0,0c0.1,0.2,0.4,0.2,0.5,0C35.7,19.5,35.7,19.3,35.5,19.1L35.5,19.1z"/>
		<path class="st7" d="M38.9,19.6L38.9,19.6L38.9,19.6L38.9,19.6L38.9,19.6L38.9,19.6c0,0,0.2-0.3,0.6-0.5c0.4-0.2,0.9-0.5,1.5-0.5
			c0.6,0,1.4,0.2,2.3,1c0.2,0.1,0.4,0.1,0.5,0c0.1-0.2,0.1-0.4,0-0.5c-1-0.9-2-1.2-2.8-1.2c-0.8,0-1.5,0.3-2,0.6
			c-0.5,0.3-0.7,0.6-0.8,0.6c-0.1,0.2-0.1,0.4,0,0.5C38.5,19.8,38.7,19.8,38.9,19.6L38.9,19.6z"/>
		
			<linearGradient id="SVGID_6_" gradientUnits="userSpaceOnUse" x1="10.5848" y1="10.563" x2="10.9626" y2="10.563" gradientTransform="matrix(7.820000e-12 -75.5265 -75.5265 -7.820000e-12 834.7122 877.1478)">
			<stop  offset="0" style="stop-color:#FFA278"/>
			<stop  offset="1" style="stop-color:#FFCFB9"/>
		</linearGradient>
		<path class="st8" d="M36.9,34.4h4l11.5,1.9l1,18c-3.8,12.4-2,21.8-2,21.8s-7.9,1.5-14.5,1.5c-6.6,0-14.5-1.5-14.5-1.5
			s1.8-9.4-2-21.8l1-18L33,34.4H36.9z"/>
		<path class="st1" d="M36.9,34.4v0.4h3.9L52,36.6l1,17.7l0.4,0l-0.4-0.1c-2,6.4-2.4,12.1-2.4,16c0,3.7,0.4,6,0.4,6l0.4-0.1
			l-0.1-0.4c0,0-0.1,0-0.3,0.1c-1.6,0.3-8.3,1.4-14.1,1.4c-3.3,0-6.9-0.4-9.7-0.7c-1.4-0.2-2.6-0.4-3.4-0.5c-0.4-0.1-0.8-0.1-1-0.2
			c-0.2,0-0.3-0.1-0.3-0.1L22.4,76l0.4,0.1c0,0,0.4-2.3,0.4-6c0-4-0.5-9.6-2.4-16l-0.4,0.1l0.4,0l1-17.7L33,34.8h3.9V34.4V34h-4
			l-0.1,0l-11.5,1.9c-0.2,0-0.3,0.2-0.3,0.4l-1,18c0,0,0,0.1,0,0.1c1.9,6.3,2.4,11.9,2.4,15.8c0,1.8-0.1,3.3-0.2,4.3
			c-0.1,0.5-0.1,0.9-0.1,1.1c0,0.1,0,0.2,0,0.3l0,0.1l0,0c0,0.1,0,0.2,0.1,0.3c0.1,0.1,0.1,0.1,0.2,0.2c0,0,7.9,1.5,14.6,1.5
			c6.7,0,14.6-1.5,14.6-1.5c0.1,0,0.2-0.1,0.2-0.2c0.1-0.1,0.1-0.2,0.1-0.3l0,0c0-0.2-0.4-2.4-0.4-5.8c0-3.9,0.5-9.5,2.4-15.8
			c0,0,0-0.1,0-0.1l-1-18c0-0.2-0.1-0.3-0.3-0.4L41,34l-0.1,0h-4V34.4z"/>
		
			<linearGradient id="SVGID_7_" gradientUnits="userSpaceOnUse" x1="10.5848" y1="10.2575" x2="10.9626" y2="10.2575" gradientTransform="matrix(7.820000e-12 -75.5265 -75.5265 -7.820000e-12 797.6236 877.1478)">
			<stop  offset="0" style="stop-color:#FFA278"/>
			<stop  offset="1" style="stop-color:#FFCFB9"/>
		</linearGradient>
		<path class="st9" d="M23.3,44.2c-0.7,3.7-3.2,12.1-5.7,16.8c0,0,3.5-1.3,8-1.8c4.5-0.5,6.8-0.4,8.4-3.3c0,0-0.8-2.6-0.4-4.9
			c0.3-2.3,3.4-6.8,3.4-6.8l0,14.1c0,0.4-0.7,1.7-2.2,2.3c-1.5,0.7-10,4.7-13.4,6.2s-4.7,2.3-8.1,1.8s-5.3-3.4-3.7-8.4
			c1.6-5,2.5-7.7,5.2-16s10-10.3,22.2-10.3"/>
		<path class="st1" d="M22.9,44.1c-0.7,3.6-3.2,12.1-5.7,16.7c-0.1,0.1-0.1,0.3,0,0.4c0.1,0.1,0.3,0.2,0.4,0.1l0,0
			c0.4-0.1,3.7-1.3,7.9-1.8c2.2-0.3,3.9-0.3,5.4-0.8c0.7-0.2,1.3-0.5,1.9-0.9c0.6-0.4,1-1,1.4-1.8c0-0.1,0.1-0.2,0-0.3l0,0
			c-0.1-0.2-0.5-1.8-0.5-3.5c0-0.4,0-0.8,0.1-1.2c0.1-0.5,0.3-1.2,0.6-1.9c0.5-1.1,1.2-2.3,1.7-3.2c0.3-0.4,0.5-0.8,0.7-1.1
			c0.1-0.1,0.2-0.2,0.2-0.3c0-0.1,0.1-0.1,0.1-0.1l-0.3-0.2l-0.4,0l0,14.1c0,0,0,0.1-0.1,0.3c-0.1,0.2-0.3,0.5-0.6,0.9
			c-0.3,0.3-0.7,0.6-1.3,0.9c-1.5,0.7-10,4.7-13.4,6.2c-1.3,0.6-2.4,1.1-3.3,1.4c-0.9,0.3-1.7,0.5-2.8,0.5c-0.5,0-1.2,0-1.9-0.2
			C12,68,11,67.5,10.4,66.7c-0.7-0.8-1.1-1.8-1.1-3.3c0-0.9,0.2-2,0.6-3.2c1.6-5,2.5-7.7,5.2-16c0.7-2,1.6-3.6,2.8-5
			c1.8-2,4.3-3.2,7.4-4c3.2-0.8,7-1.1,11.6-1.1c0.2,0,0.4-0.2,0.4-0.4c0-0.2-0.2-0.4-0.4-0.4c-6.2,0-11.1,0.5-14.8,2.1
			c-1.9,0.8-3.5,1.9-4.8,3.3c-1.3,1.4-2.3,3.1-3,5.2c-2.7,8.2-3.7,11-5.2,16c-0.4,1.3-0.6,2.4-0.6,3.4c0,1.5,0.4,2.8,1.3,3.8
			c0.8,0.9,2,1.5,3.4,1.7c0.7,0.1,1.4,0.2,2,0.2c1.1,0,2.1-0.2,3-0.5c1-0.3,2-0.8,3.3-1.4c3.4-1.5,11.9-5.5,13.4-6.2
			c0.8-0.4,1.4-0.9,1.8-1.4c0.2-0.2,0.3-0.5,0.4-0.7c0.1-0.2,0.2-0.4,0.2-0.6l0-14.1c0-0.2-0.1-0.3-0.3-0.4c-0.2,0-0.3,0-0.4,0.1
			c0,0-0.8,1.1-1.6,2.5c-0.4,0.7-0.8,1.5-1.2,2.2c-0.3,0.8-0.6,1.5-0.7,2.1c-0.1,0.4-0.1,0.9-0.1,1.3c0,2,0.5,3.7,0.5,3.8l0.4-0.1
			l-0.3-0.2c-0.4,0.7-0.8,1.2-1.2,1.5c-0.7,0.5-1.5,0.8-2.7,1c-1.1,0.2-2.5,0.3-4.2,0.5c-4.5,0.5-8.1,1.9-8.1,1.9l0.1,0.4l0.3,0.2
			c2.5-4.7,5-13.1,5.8-16.9c0-0.2-0.1-0.4-0.3-0.4C23.2,43.7,23,43.9,22.9,44.1L22.9,44.1z"/>
		
			<linearGradient id="SVGID_8_" gradientUnits="userSpaceOnUse" x1="10.5848" y1="10.8685" x2="10.9626" y2="10.8685" gradientTransform="matrix(7.820000e-12 -75.5265 -75.5265 -7.820000e-12 871.8008 877.1478)">
			<stop  offset="0" style="stop-color:#FFA278"/>
			<stop  offset="1" style="stop-color:#FFCFB9"/>
		</linearGradient>
		<path class="st10" d="M50.6,44.2c0.7,3.7,3.2,12.1,5.7,16.8c0,0-3.5-1.3-8-1.8c-4.5-0.5-6.8-0.4-8.4-3.3c0,0,0.8-2.6,0.4-4.9
			s-3.4-6.8-3.4-6.8l0,14.1c0,0.4,0.7,1.7,2.2,2.3c1.5,0.7,10,4.7,13.4,6.2s4.7,2.3,8.1,1.8c3.5-0.5,5.3-3.4,3.7-8.4
			c-1.6-5-2.5-7.7-5.2-16c-2.7-8.2-10-10.3-22.2-10.3"/>
		<path class="st1" d="M50.2,44.2c0.7,3.7,3.2,12.1,5.8,16.9l0.3-0.2l0.1-0.4c0,0-3.6-1.3-8.1-1.9c-2.3-0.3-4-0.4-5.2-0.7
			c-0.6-0.2-1.2-0.4-1.6-0.8c-0.5-0.4-0.9-0.8-1.2-1.5l-0.3,0.2l0.4,0.1c0,0,0.5-1.8,0.5-3.8c0-0.4,0-0.9-0.1-1.3
			c-0.1-0.6-0.4-1.4-0.7-2.1c-1-2.3-2.7-4.8-2.7-4.8c-0.1-0.1-0.3-0.2-0.4-0.1c-0.2,0-0.3,0.2-0.3,0.4l0,14.1c0,0.2,0.1,0.4,0.2,0.6
			c0.2,0.3,0.4,0.7,0.8,1.1c0.4,0.4,0.9,0.7,1.5,1c1.5,0.7,10,4.7,13.4,6.2c1.3,0.6,2.4,1.1,3.3,1.4c1,0.3,1.9,0.5,3,0.5
			c0.6,0,1.2-0.1,2-0.2c1.4-0.2,2.5-0.8,3.3-1.7c0.8-0.9,1.3-2.2,1.3-3.8c0-1-0.2-2.2-0.6-3.4c-1.6-5-2.5-7.8-5.2-16
			c-0.7-2.1-1.7-3.8-3-5.2c-1.9-2.1-4.6-3.4-7.8-4.3c-3.3-0.8-7.2-1.1-11.8-1.1c-0.2,0-0.4,0.2-0.4,0.4c0,0.2,0.2,0.4,0.4,0.4
			c6.1,0,10.9,0.5,14.6,2c1.8,0.8,3.3,1.8,4.5,3.1c1.2,1.3,2.1,2.9,2.8,5c2.7,8.2,3.7,11,5.2,16c0.4,1.2,0.6,2.3,0.6,3.2
			c0,1.4-0.4,2.5-1.1,3.3c-0.7,0.8-1.7,1.3-2.9,1.4c-0.7,0.1-1.3,0.2-1.9,0.2c-1,0-1.9-0.2-2.8-0.5c-0.9-0.3-1.9-0.8-3.3-1.4
			c-3.4-1.5-11.9-5.5-13.4-6.2c-0.7-0.3-1.2-0.8-1.5-1.2c-0.2-0.2-0.3-0.4-0.4-0.5c-0.1-0.2-0.1-0.3-0.1-0.3l0-14.1l-0.4,0l-0.3,0.2
			c0,0,0,0.1,0.1,0.2c0.3,0.4,1,1.6,1.7,2.8c0.3,0.6,0.7,1.3,0.9,1.9c0.3,0.6,0.5,1.2,0.5,1.7c0.1,0.4,0.1,0.8,0.1,1.2
			c0,0.9-0.1,1.8-0.2,2.5c-0.1,0.3-0.1,0.6-0.2,0.8c0,0.1,0,0.2-0.1,0.2l0,0.1l0,0c0,0.1,0,0.2,0,0.3c0.4,0.8,0.9,1.3,1.4,1.8
			c0.8,0.7,1.8,1,3,1.2c1.2,0.2,2.6,0.3,4.2,0.5c2.2,0.3,4.2,0.7,5.6,1.1c0.7,0.2,1.3,0.4,1.7,0.5c0.2,0.1,0.4,0.1,0.5,0.2
			c0.1,0,0.1,0,0.1,0l0,0c0.1,0.1,0.3,0,0.4-0.1c0.1-0.1,0.1-0.3,0-0.4c-2.5-4.6-5-13-5.7-16.7c0-0.2-0.2-0.3-0.4-0.3
			C50.3,43.8,50.1,44,50.2,44.2L50.2,44.2z"/>
		<path class="st7" d="M47,28.7c0,0-0.2,2.9-2.4,5.1C42.3,36,41.3,36,39.7,38c-1.6,2-2.2,2.7-2.8,2.7s-1.1-0.7-2.8-2.7
			c-1.6-2-2.7-1.9-4.9-4.2c-2.2-2.2-2.4-5.1-2.4-5.1l9.1-3.1l11,2.1V28.7z"/>
		<path class="st7" d="M36.9,27.5c7,4.3,11.8,0.4,12.5-0.4s0.6-1.2,0.4-1.4c-0.2-0.2-0.4,0-0.4,0c-3.8,3-5.9-1.9-9.1-1.9
			c-2.5,0-3.4,1.2-3.4,1.2s-0.9-1.2-3.4-1.2c-3.1,0-5.2,4.9-9.1,1.9c0,0-0.2-0.2-0.4,0c-0.2,0.2-0.2,0.6,0.4,1.4
			S29.9,31.8,36.9,27.5z"/>
		<path class="st11" d="M24,25.7c-0.1,0.1-0.1,0.3-0.1,0.4c0,0.2,0.1,0.3,0.2,0.4c0.2,0.3,0.3,0.5,0.6,0.7c0.5,0.4,1,0.7,1.5,1
			c1.1,0.6,2.3,0.9,3.6,1c1.2,0.1,2.5-0.1,3.7-0.4l0.9-0.3l0.8-0.4c0.1-0.1,0.3-0.1,0.4-0.2l0.4-0.2l0.8-0.5l0.1-0.1l0.1,0.1
			l0.8,0.5l0.4,0.2c0.1,0.1,0.3,0.1,0.4,0.2l0.8,0.4l0.9,0.3c1.2,0.4,2.4,0.5,3.7,0.4c1.2-0.1,2.4-0.4,3.6-1c0.5-0.3,1.1-0.6,1.5-1
			c0.2-0.2,0.4-0.5,0.6-0.7c0.1-0.1,0.1-0.3,0.2-0.4c0-0.1,0-0.3-0.1-0.4c0.1,0.1,0.1,0.3,0.1,0.4c0,0.2-0.1,0.3-0.1,0.5
			c-0.1,0.3-0.3,0.5-0.6,0.8c-0.5,0.4-1,0.8-1.5,1.1c-1.1,0.6-2.4,1-3.6,1.1c-1.3,0.1-2.6-0.1-3.8-0.4l-0.9-0.3l-0.9-0.4
			c-0.1-0.1-0.3-0.1-0.4-0.2l-0.4-0.2l-0.8-0.5H37l-0.8,0.5l-0.4,0.2c-0.1,0.1-0.3,0.1-0.4,0.2l-0.9,0.4l-0.9,0.3
			c-1.2,0.3-2.5,0.5-3.8,0.4c-1.3-0.1-2.5-0.5-3.6-1.1c-0.5-0.3-1.1-0.7-1.5-1.1c-0.2-0.2-0.4-0.5-0.6-0.8c-0.1-0.1-0.1-0.3-0.1-0.5
			C23.9,26,23.9,25.8,24,25.7z"/>
		<path class="st1" d="M26.8,54.5c0,0.3-0.2,0.5-0.5,0.5s-0.5-0.2-0.5-0.5c0-0.3,0.2-0.5,0.5-0.5S26.8,54.3,26.8,54.5z"/>
		<path class="st1" d="M47.1,54.5c0,0.3,0.2,0.5,0.5,0.5s0.5-0.2,0.5-0.5c0-0.3-0.2-0.5-0.5-0.5S47.1,54.3,47.1,54.5z"/>
		<path class="st1" d="M37.9,72.2h-0.2l0,0c0,0-0.1,0.1-0.3,0.1c-0.1,0-0.3,0.1-0.5,0.1c-0.2,0-0.5,0-0.6-0.1
			c-0.1,0-0.1-0.1-0.1-0.1l0,0l0,0c0,0,0.1-0.1,0.3-0.1c0.1,0,0.3-0.1,0.5-0.1c0.2,0,0.5,0,0.6,0.1c0.1,0,0.1,0.1,0.1,0.1l0,0H37.9
			h0.2c0-0.1-0.1-0.2-0.1-0.3c-0.1-0.1-0.3-0.2-0.4-0.2c-0.2-0.1-0.4-0.1-0.6-0.1c-0.3,0-0.6,0.1-0.8,0.1c-0.1,0-0.2,0.1-0.3,0.2
			c-0.1,0.1-0.1,0.2-0.1,0.3c0,0.1,0.1,0.2,0.1,0.3c0.1,0.1,0.3,0.2,0.4,0.2c0.2,0.1,0.4,0.1,0.6,0.1c0.3,0,0.6-0.1,0.8-0.1
			c0.1,0,0.2-0.1,0.3-0.2c0.1-0.1,0.1-0.2,0.1-0.3H37.9z"/>
	</g>
	<g>
		<path class="st12" d="M81.4,43.6c0-10,7.7-17.1,18-17.1c5.7,0,10.5,2.1,13.6,5.9l-4.9,4.5c-2.2-2.6-5-3.9-8.3-3.9
			c-6.2,0-10.6,4.3-10.6,10.6c0,6.2,4.4,10.6,10.6,10.6c3.3,0,6.1-1.3,8.3-3.9l4.9,4.5c-3.1,3.8-7.9,5.9-13.7,5.9
			C89,60.7,81.4,53.6,81.4,43.6z"/>
		<path class="st12" d="M139.2,53.1h-15.4l-2.9,7.1h-7.8l14.7-33.1h7.6l14.8,33.1h-8L139.2,53.1z M136.8,47.2l-5.2-12.7l-5.2,12.7
			H136.8z"/>
		<path class="st12" d="M151,56.9l2.6-5.8c2.8,2,6.9,3.4,10.9,3.4c4.5,0,6.4-1.5,6.4-3.5c0-6.2-19.2-1.9-19.2-14.2
			c0-5.6,4.5-10.3,13.9-10.3c4.2,0,8.4,1,11.5,2.9l-2.4,5.8c-3.1-1.7-6.2-2.6-9.2-2.6c-4.5,0-6.3,1.7-6.3,3.8
			c0,6.1,19.2,1.9,19.2,14c0,5.5-4.6,10.3-14,10.3C159.2,60.7,153.9,59.1,151,56.9z"/>
		<path class="st12" d="M214.1,27.1v33.1h-7.7V46.6h-15v13.6h-7.7V27.1h7.7v13h15v-13H214.1z"/>
		<path class="st13" d="M244.3,43.1h7v13.4c-3.6,2.7-8.6,4.2-13.4,4.2c-10.4,0-18.1-7.1-18.1-17.1s7.7-17.1,18.2-17.1
			c5.8,0,10.6,2,13.8,5.7l-4.9,4.5c-2.4-2.6-5.2-3.7-8.6-3.7c-6.4,0-10.8,4.3-10.8,10.6c0,6.2,4.4,10.6,10.7,10.6c2.1,0,4-0.4,6-1.4
			V43.1z"/>
		<path class="st13" d="M258.1,45.6V27.1h7.7v18.2c0,6.3,2.7,8.9,7.4,8.9c4.7,0,7.4-2.6,7.4-8.9V27.1h7.6v18.5
			c0,9.7-5.6,15.1-15,15.1S258.1,55.3,258.1,45.6z"/>
		<path class="st13" d="M316.7,60.1l-6.4-9.2h-0.4h-6.7v9.2h-7.7V27.1h14.3c8.8,0,14.4,4.6,14.4,12c0,5-2.5,8.6-6.8,10.4l7.4,10.6
			H316.7z M309.5,33.3h-6.2v11.5h6.2c4.7,0,7-2.2,7-5.8C316.5,35.4,314.2,33.3,309.5,33.3z"/>
		<path class="st13" d="M330,45.6V27.1h7.7v18.2c0,6.3,2.7,8.9,7.4,8.9c4.7,0,7.4-2.6,7.4-8.9V27.1h7.6v18.5c0,9.7-5.6,15.1-15,15.1
			C335.6,60.7,330,55.3,330,45.6z"/>
	</g>
</g>
</svg>
